PathFileType	4	(X/Y/Z)	C:/Users/Carlo/Dropbox/Carlos/SARAH/CongressoMarcha2025/WorkshopOpenSim/C3D/Caso02/Walking03.c3d.trc
DataRate	CameraRate	NumFrames	NumMarkers	Units	OrigDataRate	OrigDataStartFrame	OrigNumFrames
100.000000	100.000000	2	197	mm	100.000000	0	400
Frame#	Time	PELO			PELA			PELL			PELP			LFEO			LFEA			LFEL			LFEP			LTIO			LTIA			LTIL			LTIP			LFOO			LFOA			LFOL			LFOP			RFEO			RFEA			RFEL			RFEP			RTIO			RTIA			RTIL			RTIP			RFOO			RFOA			RFOL			RFOP			LTOO			LTOA			LTOL			LTOP			RTOO			RTOA			RTOL			RTOP			HEDO			HEDA			HEDL			HEDP			LCLO			LCLA			LCLL			LCLP			RCLO			RCLA			RCLL			RCLP			TRXO			TRXA			TRXL			TRXP			LHUO			LHUA			LHUL			LHUP			LRAO			LRAA			LRAL			LRAP			LHNO			LHNA			LHNL			LHNP			RHUO			RHUA			RHUL			RHUP			RRAO			RRAA			RRAL			RRAP			RHNO			RHNA			RHNL			RHNP			LFHD			RFHD			RBHD			LSHO			LUPA			LELB			LFRM			LWRA			LWRB			LFIN			RSHO			RUPA			RELB			RFRM			RWRA			RWRB			RFIN			LTHI			LKNE			LTIB			LANK			LTOE			RKNE			RTIB			RANK			LASI			LHEE			LBHD			RTHI			RHEE			RTOE			STRN			RASI			CLAV			RPSI			C7			LPSI			RBAK			T10			LHipAngles			LKneeAngles			LAbsAnkleAngle			LAnkleAngles			RHipAngles			RKneeAngles			RAnkleAngles			RAbsAnkleAngle			LPelvisAngles			RPelvisAngles			LFootProgressAngles			RFootProgressAngles			RNeckAngles			LNeckAngles			RSpineAngles			LSpineAngles			LShoulderAngles			LElbowAngles			LWristAngles			RShoulderAngles			RElbowAngles			RWristAngles			RThoraxAngles			LThoraxAngles			RHeadAngles			LHeadAngles			LHipPower			LKneePower			LAnklePower			RHipPower			RKneePower			RAnklePower			LWaistPower			RWaistPower			LNeckPower			RNeckPower			LShoulderPower			RShoulderPower			LElbowPower			RElbowPower			LWristPower			RWristPower			LGroundReactionForce			LNormalisedGRF			RGroundReactionForce			RNormalisedGRF			LAnkleForce			RAnkleForce			RKneeForce			LKneeForce			RHipForce			LHipForce			LWaistForce			RWaistForce			LNeckForce			RNeckForce			LShoulderForce			RShoulderForce			LElbowForce			RElbowForce			LWristForce			RWristForce			LGroundReactionMoment			RGroundReactionMoment			LAnkleMoment			RAnkleMoment			RKneeMoment			LKneeMoment			RHipMoment			LHipMoment			LWaistMoment			RWaistMoment			LNeckMoment			RNeckMoment			LShoulderMoment			RShoulderMoment			LElbowMoment			RElbowMoment			LWristMoment			RWristMoment			CentreOfMass			CentreOfMassFloor			
		X1	Y1	Z1	X2	Y2	Z2	X3	Y3	Z3	X4	Y4	Z4	X5	Y5	Z5	X6	Y6	Z6	X7	Y7	Z7	X8	Y8	Z8	X9	Y9	Z9	X10	Y10	Z10	X11	Y11	Z11	X12	Y12	Z12	X13	Y13	Z13	X14	Y14	Z14	X15	Y15	Z15	X16	Y16	Z16	X17	Y17	Z17	X18	Y18	Z18	X19	Y19	Z19	X20	Y20	Z20	X21	Y21	Z21	X22	Y22	Z22	X23	Y23	Z23	X24	Y24	Z24	X25	Y25	Z25	X26	Y26	Z26	X27	Y27	Z27	X28	Y28	Z28	X29	Y29	Z29	X30	Y30	Z30	X31	Y31	Z31	X32	Y32	Z32	X33	Y33	Z33	X34	Y34	Z34	X35	Y35	Z35	X36	Y36	Z36	X37	Y37	Z37	X38	Y38	Z38	X39	Y39	Z39	X40	Y40	Z40	X41	Y41	Z41	X42	Y42	Z42	X43	Y43	Z43	X44	Y44	Z44	X45	Y45	Z45	X46	Y46	Z46	X47	Y47	Z47	X48	Y48	Z48	X49	Y49	Z49	X50	Y50	Z50	X51	Y51	Z51	X52	Y52	Z52	X53	Y53	Z53	X54	Y54	Z54	X55	Y55	Z55	X56	Y56	Z56	X57	Y57	Z57	X58	Y58	Z58	X59	Y59	Z59	X60	Y60	Z60	X61	Y61	Z61	X62	Y62	Z62	X63	Y63	Z63	X64	Y64	Z64	X65	Y65	Z65	X66	Y66	Z66	X67	Y67	Z67	X68	Y68	Z68	X69	Y69	Z69	X70	Y70	Z70	X71	Y71	Z71	X72	Y72	Z72	X73	Y73	Z73	X74	Y74	Z74	X75	Y75	Z75	X76	Y76	Z76	X77	Y77	Z77	X78	Y78	Z78	X79	Y79	Z79	X80	Y80	Z80	X81	Y81	Z81	X82	Y82	Z82	X83	Y83	Z83	X84	Y84	Z84	X85	Y85	Z85	X86	Y86	Z86	X87	Y87	Z87	X88	Y88	Z88	X89	Y89	Z89	X90	Y90	Z90	X91	Y91	Z91	X92	Y92	Z92	X93	Y93	Z93	X94	Y94	Z94	X95	Y95	Z95	X96	Y96	Z96	X97	Y97	Z97	X98	Y98	Z98	X99	Y99	Z99	X100	Y100	Z100	X101	Y101	Z101	X102	Y102	Z102	X103	Y103	Z103	X104	Y104	Z104	X105	Y105	Z105	X106	Y106	Z106	X107	Y107	Z107	X108	Y108	Z108	X109	Y109	Z109	X110	Y110	Z110	X111	Y111	Z111	X112	Y112	Z112	X113	Y113	Z113	X114	Y114	Z114	X115	Y115	Z115	X116	Y116	Z116	X117	Y117	Z117	X118	Y118	Z118	X119	Y119	Z119	X120	Y120	Z120	X121	Y121	Z121	X122	Y122	Z122	X123	Y123	Z123	X124	Y124	Z124	X125	Y125	Z125	X126	Y126	Z126	X127	Y127	Z127	X128	Y128	Z128	X129	Y129	Z129	X130	Y130	Z130	X131	Y131	Z131	X132	Y132	Z132	X133	Y133	Z133	X134	Y134	Z134	X135	Y135	Z135	X136	Y136	Z136	X137	Y137	Z137	X138	Y138	Z138	X139	Y139	Z139	X140	Y140	Z140	X141	Y141	Z141	X142	Y142	Z142	X143	Y143	Z143	X144	Y144	Z144	X145	Y145	Z145	X146	Y146	Z146	X147	Y147	Z147	X148	Y148	Z148	X149	Y149	Z149	X150	Y150	Z150	X151	Y151	Z151	X152	Y152	Z152	X153	Y153	Z153	X154	Y154	Z154	X155	Y155	Z155	X156	Y156	Z156	X157	Y157	Z157	X158	Y158	Z158	X159	Y159	Z159	X160	Y160	Z160	X161	Y161	Z161	X162	Y162	Z162	X163	Y163	Z163	X164	Y164	Z164	X165	Y165	Z165	X166	Y166	Z166	X167	Y167	Z167	X168	Y168	Z168	X169	Y169	Z169	X170	Y170	Z170	X171	Y171	Z171	X172	Y172	Z172	X173	Y173	Z173	X174	Y174	Z174	X175	Y175	Z175	X176	Y176	Z176	X177	Y177	Z177	X178	Y178	Z178	X179	Y179	Z179	X180	Y180	Z180	X181	Y181	Z181	X182	Y182	Z182	X183	Y183	Z183	X184	Y184	Z184	X185	Y185	Z185	X186	Y186	Z186	X187	Y187	Z187	X188	Y188	Z188	X189	Y189	Z189	X190	Y190	Z190	X191	Y191	Z191	X192	Y192	Z192	X193	Y193	Z193	X194	Y194	Z194	X195	Y195	Z195	X196	Y196	Z196	X197	Y197	Z197	

1	0	-1885.804077148438	896.459838867188	395.9620666503909	-1756.343505859376	893.4101562500005	407.150573730469	-1874.623779296876	895.9804077148442	266.4656372070314	-1882.724487304688	1026.402221679688	395.7468872070315	-1734.716918945313	508.2162170410159	288.8965454101564	-1351.892578125	642.067321777344	384.1263732910159	-1659.642944335938	580.4602661132815	-114.4444580078126	-1880.828979492188	896.0357055664067	331.1646118164064	-1577.472778320313	93.43166351318362	256.0843505859376	-1186.7490234375	246.0967712402345	198.6629486083986	-1642.281005859376	101.9552688598633	-162.2411193847657	-1727.151611328126	488.2603759765627	287.3178710937501	-1452.690673828125	136.2608184814454	240.5023803710939	-1527.41650390625	305.7174072265626	251.6603546142579	-1460.811401367188	144.8717193603516	55.34332275390628	-1622.319946289063	61.19886016845706	244.4512176513673	-2022.388671875001	495.8442077636721	448.6206359863284	-1626.921142578126	368.3381958007814	373.459442138672	-2090.107666015626	530.6391601562502	33.28366088867189	-1890.778930664063	896.8840332031255	460.7594299316409	-2172.464111328126	82.58686828613284	454.8523559570315	-1784.207031250001	-59.37329101562503	390.936462402344	-2234.547119140626	98.89926910400396	41.49893188476564	-2029.692871093751	475.7315063476565	448.9239501953127	-2041.097167968751	56.62780380249026	477.266296386719	-2020.861938476563	245.1088714599611	472.5455627441409	-2027.871337890626	50.47263336181643	288.2053833007814	-2229.172851562501	76.4737243652344	463.4631958007815	-1396.147705078125	161.2814636230469	239.1861114501954	-1421.056274414063	217.7669677734376	242.9054107666017	-1398.854614257813	164.1517486572266	177.4664154052735	-1452.690673828125	136.2608489990235	240.502410888672	-1978.405395507813	50.01252365112308	481.8673400878909	-1971.660278320313	112.8395385742188	480.2937316894534	-1973.996826171876	47.96077728271486	418.8470458984377	-2041.097290039063	56.62787628173831	477.2663269042971	-1946.601318359376	1589.816040039063	408.8001098632815	-1721.701538085938	1624.720214843751	402.1109313964846	-1956.160278320313	1607.949340820313	182.0342559814454	-1980.831054687501	1814.083374023438	428.1765136718752	-1924.609375000001	1368.129150390625	213.3465728759767	-1729.946166992188	1356.873901367188	113.9183883666993	-1937.050659179688	1581.205444335938	164.8684539794922	-1825.322631835938	1416.896240234375	402.2124633789065	-1891.614257812501	1364.012084960938	602.705017089844	-1684.300537109376	1351.038208007813	667.829772949219	-1887.742309570313	1153.243286132813	548.3906860351565	-1825.322753906251	1416.896118164063	402.2124633789065	-1825.322753906251	1416.896240234375	402.2124633789065	-1607.466674804688	1403.546264648438	399.4549255371096	-1822.981079101563	1410.046875	620.3746337890627	-1838.751953125001	1199.13037109375	395.5196228027346	-2027.337036132813	1099.209594726563	172.2094879150391	-2299.372558593751	1200.335205078125	190.4629058837891	-2024.762451171876	1054.2783203125	459.5029296875002	-1924.609497070313	1368.129150390625	213.3466033935548	-1967.633911132813	832.2875976562505	129.9291687011719	-2218.955810546876	777.0845336914067	123.5478973388672	-1965.355102539063	792.5178222656255	384.2201843261721	-2023.157836914063	1080.52490234375	169.2497558593751	-1940.184936523438	679.0733032226565	74.26167297363284	-1902.063232421876	739.9924316406252	-74.60928344726565	-2098.678710937501	667.191101074219	28.81351470947267	-1967.634033203126	832.2875366210942	129.9291687011719	-1871.707763671876	1083.937377929688	679.952575683594	-2152.946289062501	1084.7890625	755.514343261719	-1798.810302734376	1163.703979492188	950.3754882812505	-1891.614135742188	1364.012084960938	602.7050781250002	-1651.649047851563	920.7633666992192	668.7630615234377	-1789.716552734376	728.1145629882815	762.807312011719	-1587.818847656251	990.608276367188	905.5496215820317	-1856.303833007813	1072.515258789063	679.1693115234377	-1526.3857421875	821.9418945312505	678.724548339844	-1492.077880859375	880.038452148438	823.6503906250005	-1433.177001953125	933.3639526367192	611.9937133789065	-1651.648925781251	920.763305664063	668.7630615234377	-1767.200195312501	1693.725585937501	345.0597534179689	-1768.708496093751	1679.105957031251	472.9284362792971	-1909.346679687501	1660.025634765626	484.000183105469	-1927.906250000001	1424.59228515625	200.5002899169923	-1957.640625000001	1263.329833984375	150.0696258544922	-2008.499267578126	1098.008544921875	133.0183105468751	-1996.987060546876	970.964721679688	105.5017700195313	-1929.803588867188	840.9584350585942	135.4717712402344	-2001.708740234376	826.8961791992192	111.3044509887696	-1947.730224609376	764.9230957031252	79.70364379882815	-1892.645751953126	1420.168334960938	617.176208496094	-1867.511840820313	1213.097045898438	691.1894531250002	-1849.218872070313	1095.314575195313	715.4074707031252	-1721.185913085938	1019.815612792969	705.4900512695315	-1626.146118164063	949.3507690429692	658.975280761719	-1673.554687500001	896.754272460938	691.2825317382815	-1583.679565429688	880.4052124023442	696.4276123046877	-1794.903198242188	745.5916137695315	197.2007446289064	-1723.813842773438	518.7081298828127	230.3192901611329	-1672.782470703126	316.5028686523439	200.6246032714845	-1584.360717773438	94.33757019042972	211.6238555908204	-1440.470825195313	116.9557113647462	247.1668090820314	-2012.686157226563	490.858825683594	508.129089355469	-2100.430419921876	253.3002319335939	513.2581787109377	-2165.785400390626	80.83203887939456	499.3193359375002	-1825.151245117188	994.857055664063	291.3872375488282	-1614.355346679688	36.09508895874025	258.4799194335939	-1921.623413085938	1667.012695312501	342.7640075683595	-1958.332519531251	638.928894042969	542.9246215820315	-2235.198730468751	54.92828369140628	452.4461669921877	-2034.756469726563	34.80993652343751	463.348083496094	-1776.927856445313	1241.220092773438	399.9330749511721	-1843.909790039063	995.6614379882817	508.658874511719	-1818.336303710938	1416.468017578125	402.1240234375002	-2030.598510742188	999.0813598632817	453.2218322753909	-1959.596679687501	1486.380249023438	409.5907897949221	-2016.099731445313	1000.33837890625	317.3582458496095	-2042.592163085938	1322.40576171875	458.6240844726565	-2027.853515625001	1226.256591796875	398.4011535644534	-7.740749835968021	8.700378417968754	21.45590591430665	1.523454070091248	-21.11693954467774	-0.4803184270858767	0	0	3.008787155151369	-1.188617944717408	6.359645366668705	3.027416944503786	0.305626153945923	15.01156902313233	-16.89583969116212	-2.100291013717652	-1.520992875099183	2.200870513916017	2.794562816619874	-12.8979196548462	14.200514793396	0	0	13.83499908447266	-0.09485536068677908	4.938103199005129	1.357661724090577	0.09485536068677908	-4.938103199005129	1.357661724090577	-3.448579311370851	-1.21954619884491	-113.8696594238282	-1.430375814437867	-4.174369335174562	-83.97641754150393	2.655594348907472	-1.961385250091554	-12.29997539520264	-2.655594348907472	1.961385250091554	-12.29997539520264	1.877917408943177	-5.595565319061281	2.148747205734254	-1.877917408943177	5.595565319061281	2.148747205734254	6.980833053588871	-0.3480296134948732	-17.11122131347657	-1.590277359294756e-15	4.504659232434928e-12	33.14590072631837	10.83695220947266	105.8955078125001	-2.625814676284791	17.35655975341798	12.88906764984132	7.10521221160889	1.987846778527784e-15	3.412735155236548e-12	51.94630050659183	4.858053207397463	92.92010498046878	-3.783123016357424	-1.757022142410279	0.7241830229759219	3.528833389282228	1.757022142410279	-0.7241830229759219	3.528833389282228	-4.881752490997316	1.689632534980775	8.678034782409672	4.881752490997316	-1.689632534980775	8.678034782409672	0	-0.4403251707553866	0	0	-0.7961341738700871	0	0	-0.01372411847114564	0	nan	nan	nan	nan	nan	nan	nan	nan	nan	nan	nan	nan	nan	nan	nan	nan	nan	nan	nan	nan	nan	nan	nan	nan	nan	nan	nan	nan	nan	nan	nan	nan	nan	nan	nan	nan	nan	nan	nan	nan	nan	nan	nan	nan	nan	nan	nan	nan	nan	nan	nan	1.137781737270416e-06	-0.2786887586116792	-0.1395331472158433	nan	nan	nan	nan	nan	nan	-0.06946519762277606	0.6714128255844118	-0.8249550461769108	nan	nan	nan	0.02287805825471879	1.679413199424745	-0.7391362786293032	nan	nan	nan	nan	nan	nan	nan	nan	nan	nan	nan	nan	nan	nan	nan	nan	nan	nan	nan	nan	nan	nan	nan	nan	nan	nan	nan	nan	nan	nan	nan	nan	nan	nan	nan	nan	1.515824539659642e-15	20.47131919860841	0.2986765801906587	nan	nan	nan	nan	nan	nan	-62.08766937255862	20.43639564514161	-329.6688537597657	nan	nan	nan	-243.4134216308595	11.36616230010987	687.608337402344	nan	nan	nan	nan	nan	nan	nan	nan	nan	nan	nan	nan	nan	nan	nan	nan	nan	nan	nan	nan	nan	nan	nan	nan	nan	nan	nan	nan	nan	nan	-1885.821044921876	988.718627929688	388.070739746094	-1885.821044921876	0	388.070739746094	
2	0.01	-1872.732055664063	894.2704467773442	395.1251220703127	-1743.370727539063	890.674194335938	407.2598876953127	-1860.618164062501	893.3556518554692	265.715057373047	-1869.066162109376	1024.196533203125	394.5498352050784	-1721.177001953126	505.6567077636721	287.5718383789064	-1339.382080078125	638.212585449219	389.386901855469	-1640.009521484376	580.5537109375002	-114.3074951171876	-1867.290649414063	893.6311035156255	330.3668823242189	-1553.730834960938	94.78208923339847	254.152801513672	-1165.943725585938	257.0325927734376	202.350799560547	-1613.753051757813	104.4135131835938	-165.0035705566407	-1713.123413085938	485.8951416015627	285.9644775390626	-1429.26708984375	139.1059875488282	240.3018493652345	-1506.0673828125	307.6444091796876	251.2789764404298	-1435.207397460938	148.4617614746094	55.09609985351565	-1598.058105468751	62.09136199951175	241.8252410888673	-2014.056396484376	495.0501403808596	447.8530578613284	-1619.439575195313	363.1551818847657	374.5191345214845	-2079.706787109376	529.8728027343752	31.95166015625001	-1878.173461914063	894.909790039063	459.8833007812502	-2171.135253906251	84.4286804199219	455.1599731445315	-1785.170166015626	-64.32608032226565	392.8794250488284	-2231.768798828126	100.2637634277344	41.57977294921876	-2021.701660156251	475.0653991699221	448.2086486816409	-2040.103881835938	56.58585357666018	477.2783203125002	-2017.133911132813	244.745086669922	472.2465515136721	-2027.449951171876	49.98457717895511	288.193328857422	-2227.904541015626	79.15492248535159	463.9223937988284	-1373.00341796875	164.7775268554688	239.7940521240236	-1398.603515625	220.9569854736329	243.4530792236329	-1374.983520507813	167.8961029052735	178.0588073730469	-1429.26708984375	139.1059722900391	240.3018493652345	-1977.503906250001	49.06279754638675	481.7303161621096	-1969.847290039063	111.7825469970704	480.0531005859377	-1973.285888671876	46.86240768432619	418.7019653320315	-2040.104125976563	56.58580017089847	477.2783203125002	-1933.094970703126	1588.214843750001	406.1822509765627	-1708.017578125001	1621.980590820313	399.6277465820315	-1942.403442382813	1606.240966796876	179.397445678711	-1966.207519531251	1812.664916992188	425.3819274902346	-1911.430541992188	1365.354370117188	211.1964569091798	-1716.713012695313	1354.353881835938	111.6633682250977	-1924.406494140626	1578.380981445313	162.2676086425782	-1812.135620117188	1414.764892578125	399.9871826171877	-1878.569213867188	1361.772216796875	600.3200683593752	-1671.393798828126	1349.313720703125	665.726989746094	-1874.110595703126	1151.079345703125	546.0654296875002	-1812.135742187501	1414.764892578125	399.9870605468752	-1812.135742187501	1414.765014648438	399.9870605468752	-1594.237182617188	1401.932495117188	398.0145568847659	-1810.550659179688	1408.142822265625	618.165954589844	-1825.021850585938	1196.958129882813	393.4698181152346	-2014.205688476563	1096.417724609375	170.414535522461	-2286.213378906251	1197.802490234375	187.3238067626954	-2012.785888671876	1052.292114257813	457.8232421875002	-1911.430419921876	1365.3544921875	211.1964111328126	-1956.744018554688	828.9679565429692	129.0692901611329	-2208.423828125001	775.9602661132817	122.1743927001954	-1955.487670898438	789.9238891601567	383.3800659179689	-2010.183471679688	1077.6962890625	167.5202789306641	-1929.566528320313	675.7816162109377	73.72281646728518	-1889.107177734376	736.483825683594	-74.41970062255862	-2087.339843750001	664.9605712890627	26.19923782348634	-1956.744140625001	828.9679565429692	129.0692596435547	-1855.928955078126	1081.981567382813	677.4818115234377	-2136.979492187501	1080.16357421875	753.353698730469	-1783.490966796876	1162.375732421875	947.738891601563	-1878.569335937501	1361.772216796875	600.3199462890627	-1635.317504882813	919.5259399414067	666.6765747070315	-1772.800048828126	726.5584106445315	760.9291992187502	-1571.868286132813	989.9440917968755	903.3977661132817	-1840.486206054688	1070.609619140625	676.7253417968752	-1509.798950195313	821.3515625000005	677.1757812500002	-1475.79736328125	880.2749023437505	821.6585083007817	-1417.104125976563	932.676147460938	609.9609375000002	-1635.317382812501	919.5258789062505	666.676696777344	-1753.172485351563	1691.162231445313	342.560272216797	-1754.754638671876	1676.664062500001	470.3125000000002	-1895.474975585938	1658.293334960938	481.3867492675784	-1914.867797851563	1421.783081054688	198.2356567382814	-1944.328979492188	1260.329345703125	148.291000366211	-1994.923828125001	1094.957763671875	131.4488677978516	-1984.702880859376	967.969360351563	104.105697631836	-1918.822998046876	837.224243164063	135.0893096923829	-1990.714599609376	823.9421386718755	110.0125122070313	-1936.626708984376	761.5911865234377	79.09280395507815	-1879.757568359376	1417.927978515625	614.780456542969	-1853.071044921876	1211.210571289063	688.3811035156252	-1833.408813476563	1093.558349609375	712.8522949218752	-1705.115600585938	1018.426818847657	703.014343261719	-1609.927856445313	948.1543579101567	656.7504882812502	-1657.111206054688	895.5383300781255	689.3122558593752	-1567.263427734376	879.6292114257817	694.564636230469	-1779.434082031251	743.359802246094	196.5576019287111	-1709.394531250001	516.5288696289065	229.2346954345704	-1653.753662109376	316.1284790039064	198.6716308593751	-1560.107910156251	95.80539703369143	209.6187286376954	-1416.28515625	120.0265197753907	246.9995269775392	-2004.655273437501	490.0635375976565	507.4097595214846	-2096.408691406251	254.0616912841798	513.091003417969	-2164.612060546876	82.72516632080081	499.6520690917971	-1810.893554687501	992.0841674804692	290.821258544922	-1589.526977539063	37.2602996826172	255.9402770996095	-1907.728759765626	1665.235961914063	340.0847778320314	-1948.859741210938	637.7143554687502	542.0928955078127	-2234.573730468751	57.92980957031253	452.8991699218752	-2034.635009765626	34.84704589843751	463.343200683594	-1763.317749023438	1239.290893554688	398.3352355957034	-1831.196411132813	993.6174316406255	507.7118225097659	-1805.148071289063	1414.353393554688	399.9237976074221	-2017.557495117188	997.736450195313	450.5417175292971	-1946.258911132813	1484.337036132813	407.1018981933596	-2001.881713867188	998.4655151367192	314.8179626464845	-2029.459960937501	1320.407104492188	455.8120422363284	-2013.843994140626	1224.080810546875	395.6648864746096	-8.132136344909672	9.306140899658207	21.64105415344239	1.159234285354615	-21.41739082336426	-1.874204277992249	0	0	2.311126947402955	-1.197354674339295	6.393685817718509	2.325602769851685	0.288554608821869	15.19278430938721	-17.25185012817384	-2.167384862899781	-1.497833132743836	2.582012176513673	2.715519189834596	-12.57424545288087	14.32492828369141	0	0	13.97429370880128	-0.2536054551601411	5.356959819793703	1.616224765777589	0.2536054551601411	-5.356959819793703	1.616224765777589	-3.391938209533693	-0.4704401195049288	-114.5258789062501	-1.524325132369996	-4.038941860198976	-83.14727020263675	2.685005187988282	-2.091954946517945	-11.87015247344971	-2.685005187988282	2.091954946517945	-11.87015247344971	1.979612708091737	-5.822158813476564	1.752817511558534	-1.979612708091737	5.822158813476564	1.752817511558534	6.898869037628177	-0.291849583387375	-17.28844261169434	0	-2.036151412407317e-12	32.68621063232423	10.93563556671143	106.5195693969727	-2.282806873321534	17.29171752929688	13.0458459854126	7.570042133331302	2.782985405235603e-15	-1.44397178675898e-12	51.56858062744143	4.98167943954468	93.0951843261719	-3.784185171127321	-1.710898637771607	0.5179936289787295	3.385843276977541	1.710898637771607	-0.5179936289787295	3.385843276977541	-4.837131500244142	1.655488848686219	8.392174720764164	4.837131500244142	-1.655488848686219	8.392174720764164	0	-0.2348499596118928	0	0	-0.4758230447769167	0	0	-0.003888310166075827	0	nan	nan	nan	nan	nan	nan	nan	nan	nan	nan	nan	nan	nan	nan	nan	nan	nan	nan	nan	nan	nan	nan	nan	nan	nan	nan	nan	nan	nan	nan	nan	nan	nan	nan	nan	nan	nan	nan	nan	nan	nan	nan	nan	nan	nan	nan	nan	nan	nan	nan	nan	0.002702070400118829	-0.2133678495883943	-0.1635889410972596	nan	nan	nan	nan	nan	nan	-0.1948314756155015	0.7950036525726323	-0.3373932242393495	nan	nan	nan	-0.05728918313980105	1.925438880920411	0.3698182702064515	nan	nan	nan	nan	nan	nan	nan	nan	nan	nan	nan	nan	nan	nan	nan	nan	nan	nan	nan	nan	nan	nan	nan	nan	nan	nan	nan	nan	nan	nan	nan	nan	nan	nan	nan	nan	3.031649079319284e-15	19.80671119689942	-2.351883649826051	nan	nan	nan	nan	nan	nan	-72.70159912109378	19.8264274597168	-237.6936187744142	nan	nan	nan	-236.8520355224611	10.82202434539795	255.0826721191407	nan	nan	nan	nan	nan	nan	nan	nan	nan	nan	nan	nan	nan	nan	nan	nan	nan	nan	nan	nan	nan	nan	nan	nan	nan	nan	nan	nan	nan	nan	-1872.660522460938	986.780395507813	386.4059143066409	-1872.660522460938	0	386.4059143066409	
